HIERARCHY
ROOT root
{
	OFFSET	0	13.1	24.9
	CHANNELS 6  Xposition Yposition Zposition Xrotation Yrotation Zrotation
	JOINT spine_1
	{
		OFFSET	0	9.99999	0
		CHANNELS 3  Xrotation Yrotation Zrotation
		JOINT spine_2
		{
			OFFSET	0	112	-10
			CHANNELS 3  Xrotation Yrotation Zrotation
			JOINT spine_3
			{
				OFFSET	0	206.5	19.3
				CHANNELS 3  Xrotation Yrotation Zrotation
				JOINT spine_4
				{
					OFFSET	0	110.4	14.6
					CHANNELS 3  Xrotation Yrotation Zrotation
					JOINT neck_1
					{
						OFFSET	0	71.8	-50.3
						CHANNELS 3  Xrotation Yrotation Zrotation
						JOINT neck_2
						{
							OFFSET	0	86.2	-25.8
							CHANNELS 3  Xrotation Yrotation Zrotation
							JOINT head_ee
							{
								OFFSET	0	179.8	-8.7
								CHANNELS 3  Xrotation Yrotation Zrotation
								End Site
								{
									OFFSET	1	0	0
								}
							}
						}
					}
					JOINT left_clavicle
					{
						OFFSET	-43.2	22.4	-70.8
						CHANNELS 3  Xrotation Yrotation Zrotation
						JOINT left_shoulder
						{
							OFFSET	-93.9	-5.79999	48.7
							CHANNELS 3  Xrotation Yrotation Zrotation
							JOINT left_elbow
							{
								OFFSET	-291.4	-30.8	15.2
								CHANNELS 3  Xrotation Yrotation Zrotation
								JOINT left_lowarm_twist
								{
									OFFSET	-110.7	-3.89999	13.6
									CHANNELS 3  Xrotation Yrotation Zrotation
									JOINT left_hand
									{
										OFFSET	-110.7	-3.89999	13.6
										CHANNELS 3  Xrotation Yrotation Zrotation
										JOINT left_ee
										{
											OFFSET	-80.8	-5.10001	12.1
											CHANNELS 3  Xrotation Yrotation Zrotation
											End Site
											{
												OFFSET	1	0	0
											}
										}
									}
								}
							}
						}
					}
					JOINT right_clavicle
					{
						OFFSET	43.2	22.4	-70.8
						CHANNELS 3  Xrotation Yrotation Zrotation
						JOINT right_shoulder
						{
							OFFSET	93.9	-5.79999	48.7
							CHANNELS 3  Xrotation Yrotation Zrotation
							JOINT right_elbow
							{
								OFFSET	291.4	-30.8	15.2
								CHANNELS 3  Xrotation Yrotation Zrotation
								JOINT right_lowarm_twist
								{
									OFFSET	110.7	-3.89999	13.6
									CHANNELS 3  Xrotation Yrotation Zrotation
									JOINT right_hand
									{
										OFFSET	110.7	-3.89999	13.6
										CHANNELS 3  Xrotation Yrotation Zrotation
										JOINT right_ee
										{
											OFFSET	80.8	-5.10001	12.1
											CHANNELS 3  Xrotation Yrotation Zrotation
											End Site
											{
												OFFSET	1	0	0
											}
										}
									}
								}
							}
						}
					}
				}
			}
		}
	}
	JOINT left_hip
	{
		OFFSET	-82.8	-127.5	0.300001
		CHANNELS 3  Xrotation Yrotation Zrotation
		JOINT left_knee
		{
			OFFSET	-28.2	-396.7	2.2
			CHANNELS 3  Xrotation Yrotation Zrotation
			JOINT left_ankle
			{
				OFFSET	-11.7	-411.3	35.4
				CHANNELS 3  Xrotation Yrotation Zrotation
				JOINT left_toes
				{
					OFFSET	0	-60	-88.6
					CHANNELS 3  Xrotation Yrotation Zrotation
					JOINT left_foot_ee
					{
						OFFSET	-22.5	-16.5	-42.2
						CHANNELS 3  Xrotation Yrotation Zrotation
						End Site
						{
							OFFSET	1	0	0
						}
					}
				}
			}
		}
	}
	JOINT right_hip
	{
		OFFSET	82.8	-127.5	0.300001
		CHANNELS 3  Xrotation Yrotation Zrotation
		JOINT right_knee
		{
			OFFSET	28.2	-396.7	2.2
			CHANNELS 3  Xrotation Yrotation Zrotation
			JOINT right_ankle
			{
				OFFSET	11.7	-411.3	35.4
				CHANNELS 3  Xrotation Yrotation Zrotation
				JOINT right_toes
				{
					OFFSET	0	-60	-88.6
					CHANNELS 3  Xrotation Yrotation Zrotation
					JOINT right_foot_ee
					{
						OFFSET	22.5	-16.5	-42.2
						CHANNELS 3  Xrotation Yrotation Zrotation
						End Site
						{
							OFFSET	1	0	0
						}
					}
				}
			}
		}
	}
}
MOTION
Frames: 13
Frame Time: 0.02
574.341474168 716.185 -1210.41540403 -169.572053259 -47.4562665974 -170.433451666 2.90655 -0.133307 -0.0735253 2.90654 -0.128358 -0.0818589 2.90673 -0.113573 -0.101379 2.90674 -0.128159 -0.0821701 -8.63404 -12.8615 0.801258 -8.74044 -24.6479 -2.19881 -0.0 0.0 -0.0 2.79977 16.6294 6.32375 -9.01799 -47.1052 60.4122 0.447865 -12.5092 0.0490857 -6.40059 -0.269002 0.77231 0.0437573 13.4071 5.78623 -0.0 0.0 -0.0 7.5131 4.23808 -14.6092 32.8223 -61.0954 -45.7647 0.213233 6.02989 -0.0112308 85.1411 4.44342 8.87262 -3.97582 -28.2928 10.5518 0.0 0.0 0.0 18.0398 14.2776 -3.31865 -27.4253 0.134039 4.16658 34.49 8.90805 -4.3557 -25.5563 0.0 0.0 -0.0 0.0 -0.0 30.7037 17.4454 -1.33929 -42.3911 0.625854 -6.32973 4.91696 -29.028 0.759979 40.2002 -0.0 -0.0 0.0 0.0 0.0 
582.609620693 715.464 -1203.52406225 -170.088736832 -45.8684785882 -170.573108968 2.8518 -0.135849 -0.0361628 2.85179 -0.133273 -0.044734 2.8519 -0.124314 -0.0656416 2.85192 -0.133121 -0.0451847 -8.74733 -12.5585 0.75826 -8.85584 -24.0598 -2.19221 -0.0 0.0 -0.0 3.28905 14.8523 7.03913 -7.72085 -47.287 58.5708 0.426754 -11.9369 0.0446163 -6.45307 -0.271563 0.778514 -0.0239067 13.7972 5.51526 -0.0 0.0 -0.0 7.28897 4.13596 -14.1497 31.5881 -61.7116 -46.5711 0.209368 5.92138 -0.0108285 85.1756 4.44756 8.8742 -3.83753 -28.0261 9.95479 0.0 0.0 0.0 17.8988 13.1302 -3.55502 -28.3627 0.103286 4.30716 34.8367 8.42734 -4.38788 -25.6189 0.0 0.0 -0.0 0.0 -0.0 31.8003 17.206 -2.13609 -42.112 0.606569 -6.29138 4.45031 -29.0809 0.68891 39.86 -0.0 -0.0 0.0 0.0 0.0 
591.126996339 715.623 -1201.23453092 -170.404036871 -43.9816799155 -170.202617717 2.66999 -0.0457803 -0.0867909 2.66999 -0.0401647 -0.0895282 2.67005 -0.0248994 -0.0949132 2.67004 -0.0395767 -0.0897896 -8.94875 -12.2165 0.673893 -9.06362 -23.377 -2.23407 -0.0 0.0 -0.0 3.79912 12.9928 7.82635 -6.45716 -47.6403 57.6151 0.406132 -11.3755 0.0404497 -6.23586 -0.261002 0.752824 -0.115344 13.7669 4.92913 -0.0 0.0 -0.0 7.17495 4.02427 -13.9174 30.9126 -61.6384 -45.8939 0.207488 5.86859 -0.0106355 85.1496 4.44444 8.873 -3.69544 -27.7904 9.31389 0.0 0.0 0.0 17.2288 13.734 -3.87392 -27.5706 0.129425 4.18839 34.5939 8.04081 -4.36269 -25.5005 0.0 0.0 -0.0 0.0 -0.0 35.1993 15.8972 -2.64058 -39.0316 0.40631 -5.86225 2.25085 -29.0989 0.350334 39.2846 -0.0 -0.0 0.0 0.0 0.0 
601.802253606 717.425 -1198.79056052 -170.009709726 -43.3586356149 -169.457990379 2.66176 0.00782138 -0.160745 2.66178 0.0180342 -0.159922 2.66172 0.0441033 -0.154775 2.66169 0.019106 -0.159797 -9.09352 -11.8952 0.601663 -9.21046 -22.7362 -2.25509 -0.0 0.0 -0.0 4.17364 12.0612 8.43763 -6.22406 -47.5781 56.563 0.39491 -11.069 0.0382656 -6.13589 -0.256174 0.740987 -0.207947 13.8357 4.37619 -0.0 0.0 -0.0 7.07695 3.61474 -13.7228 30.6914 -61.6912 -45.1176 0.213339 6.03287 -0.011242 85.1626 4.446 8.8736 -3.60112 -27.6902 8.85268 0.0 0.0 0.0 16.6454 13.5583 -3.90421 -27.473 0.13253 4.17374 34.6796 7.69744 -4.37009 -25.4345 0.0 0.0 -0.0 0.0 -0.0 37.5241 15.4795 -3.30607 -37.563 0.319049 -5.65408 0.701432 -28.9416 0.109443 38.7837 -0.0 -0.0 0.0 0.0 0.0 
608.0555767 715.574 -1207.70931428 -168.357520187 -47.0672599459 -167.364968786 2.67884 0.0301484 -0.10334 2.67885 0.0366631 -0.101212 2.67878 0.0527897 -0.0938151 2.67877 0.0373108 -0.100975 -8.92042 -11.2945 -0.0448104 -9.01433 -21.1493 -2.70528 -0.0 0.0 -0.0 4.63877 9.7709 9.20709 -5.83422 -47.5015 53.0092 0.434447 -12.1457 0.0462209 -6.00422 -0.249847 0.725384 -0.411684 14.0871 3.20454 -0.0 0.0 -0.0 8.48876 5.82165 -16.6263 31.7216 -61.8817 -39.4467 0.275464 7.77059 -0.0187083 85.1354 4.44274 8.87236 -3.20582 -26.2358 7.50507 0.0 0.0 0.0 15.9549 13.3771 -3.77107 -25.092 0.200556 3.81469 35.4686 7.71176 -4.44694 -24.7874 0.0 0.0 -0.0 0.0 -0.0 40.5964 14.2545 -4.79434 -29.8325 -0.0504468 -4.52652 -4.2869 -25.1709 -0.660738 35.0246 -0.0 -0.0 0.0 0.0 0.0 
608.030768436 715.574 -1209.07217711 -168.278530128 -47.4204830686 -167.257390053 2.67884 0.0301484 -0.10334 2.67885 0.0366631 -0.101212 2.67878 0.0527897 -0.0938151 2.67877 0.0373108 -0.100975 -8.92042 -11.2945 -0.0448104 -9.01433 -21.1493 -2.70528 -0.0 0.0 -0.0 4.63877 9.7709 9.20709 -5.83422 -47.5015 53.0092 0.434447 -12.1457 0.0462209 -6.00422 -0.249847 0.725384 -0.411684 14.0871 3.20454 -0.0 0.0 -0.0 8.48876 5.82165 -16.6263 31.7216 -61.8817 -39.4467 0.275464 7.77059 -0.0187083 85.1354 4.44274 8.87236 -3.20582 -26.2358 7.50507 0.0 0.0 0.0 15.9549 13.3771 -3.77107 -25.092 0.200556 3.81469 35.4686 7.71176 -4.44694 -24.7874 0.0 0.0 -0.0 0.0 -0.0 40.5964 14.2545 -4.79434 -29.8325 -0.0504468 -4.52652 -4.2869 -25.1709 -0.660738 35.0246 -0.0 -0.0 0.0 0.0 0.0 
607.954165643 715.574 -1211.83403346 -168.11371325 -48.1361382106 -167.034834504 2.67884 0.0301484 -0.10334 2.67885 0.0366631 -0.101212 2.67878 0.0527897 -0.0938151 2.67877 0.0373108 -0.100975 -8.92042 -11.2945 -0.0448104 -9.01433 -21.1493 -2.70528 -0.0 0.0 -0.0 4.63877 9.7709 9.20709 -5.83422 -47.5015 53.0092 0.434447 -12.1457 0.0462209 -6.00422 -0.249847 0.725384 -0.411684 14.0871 3.20454 -0.0 0.0 -0.0 8.48876 5.82165 -16.6263 31.7216 -61.8817 -39.4467 0.275464 7.77059 -0.0187083 85.1354 4.44274 8.87236 -3.20582 -26.2358 7.50507 0.0 0.0 0.0 15.9549 13.3771 -3.77107 -25.092 0.200556 3.81469 35.4686 7.71176 -4.44694 -24.7874 0.0 0.0 -0.0 0.0 -0.0 40.5964 14.2545 -4.79434 -29.8325 -0.0504468 -4.52652 -4.2869 -25.1709 -0.660738 35.0246 -0.0 -0.0 0.0 0.0 0.0 
621.921945492 715.368 -1210.92289159 -164.879398657 -53.4551799179 -162.889159828 2.59468 -0.0695129 -0.0267973 2.59467 -0.0676668 -0.0311662 2.59471 -0.0615671 -0.0419479 2.59472 -0.0674193 -0.031698 -8.92303 -10.7003 0.745682 -9.00744 -20.5773 -1.78631 -0.0 0.0 -0.0 5.10905 8.80056 10.0303 -5.51341 -47.624 50.3685 0.499822 -13.9068 0.0609583 -6.37548 -0.267779 0.769342 -0.555368 14.3517 2.41851 -0.0 0.0 -0.0 9.01484 5.25281 -17.7341 30.3884 -63.0767 -37.2364 0.283974 8.00758 -0.0198764 85.1637 4.44614 8.87365 -3.0027 -25.3053 6.88528 0.0 0.0 0.0 15.1891 13.1827 -4.516 -23.0468 0.247028 3.50429 36.3831 7.71405 -4.53441 -24.6807 0.0 0.0 -0.0 0.0 -0.0 43.4275 13.6129 -6.3115 -23.3815 -0.240181 -3.5552 -7.51518 -24.234 -1.15896 32.6587 -0.0 -0.0 0.0 0.0 0.0 
649.678854127 703.048 -1205.09163195 -162.254297984 -54.4594717936 -160.905517694 2.85298 -0.00218101 -0.0582154 2.85298 0.00152781 -0.0582362 2.85298 0.0108987 -0.0572277 2.85297 0.00172383 -0.0582307 -9.52177 -9.38815 -0.524678 -9.60279 -17.288 -2.80371 -0.0 0.0 -0.0 5.40848 6.49611 10.5606 -4.05721 -48.0609 48.8728 0.620138 -17.077 0.093107 -6.5727 -0.277421 0.792645 -0.767004 16.5539 2.03997 -0.0 0.0 -0.0 8.43438 6.73956 -16.5044 27.3804 -64.346 -36.6561 0.258989 7.31102 -0.0165461 85.1552 4.44512 8.87326 -2.98902 -24.7043 7.14144 0.0 0.0 0.0 13.432 13.3801 -3.93928 -22.2065 0.262904 3.37633 37.7069 7.45916 -4.65713 -24.4737 0.0 0.0 -0.0 0.0 -0.0 45.6559 13.2754 -7.23212 -20.5338 -0.28891 -3.121 -9.44232 -22.9732 -1.45157 29.8552 -0.0 -0.0 0.0 0.0 0.0 
667.293548021 694.834 -1205.93966141 -161.643527375 -55.7255009335 -160.126425558 2.84248 -0.0761516 -0.320711 2.84254 -0.0555897 -0.324907 2.84284 -0.00241163 -0.329619 2.84269 -0.0544382 -0.325101 -7.86933 -8.67215 0.660835 -7.89015 -16.6486 -1.22774 -0.0 0.0 -0.0 5.64234 7.09995 10.9898 -1.04328 -47.8636 50.0157 0.699754 -19.1183 0.117843 -7.0071 -0.298942 0.84386 -0.731601 14.922 1.56438 -0.0 0.0 -0.0 8.26005 6.4406 -16.1403 28.1198 -64.3122 -34.5252 0.210049 5.94051 -0.0108989 85.1105 4.43976 8.87121 -3.05815 -24.5265 7.6355 0.0 0.0 0.0 12.0713 13.4342 -3.63044 -22.6909 0.253982 3.45012 39.8362 7.07329 -4.84679 -23.7858 0.0 0.0 -0.0 0.0 -0.0 46.9523 13.5386 -7.17777 -20.7428 -0.286069 -3.15293 -8.40235 -21.9044 -1.28396 30.9826 -0.0 -0.0 0.0 0.0 0.0 
683.0201499 688.394 -1200.6323574 -158.416418291 -57.7984339517 -156.130873714 3.04293 -0.113541 -0.324275 3.04298 -0.0926766 -0.330842 3.04351 -0.0392502 -0.341328 3.04335 -0.0926638 -0.330846 -6.32848 -8.81456 2.18931 -6.27831 -17.9213 0.503309 -0.0 0.0 -0.0 5.41438 3.29635 10.5384 0.102745 -49.3318 48.3878 0.821298 -22.1387 0.160678 -7.83815 -0.341194 0.941381 -0.888001 15.9467 1.03804 -0.0 0.0 -0.0 8.05719 7.01344 -15.7055 23.8962 -65.3718 -37.8507 0.200552 5.67371 -0.00993791 85.0499 4.4325 8.86843 -3.07848 -24.4654 7.7862 0.0 0.0 0.0 10.7861 13.6014 -3.85643 -18.6507 0.309255 2.83279 41.2904 10.6661 -4.99356 -24.5082 0.0 0.0 -0.0 0.0 -0.0 47.9889 14.7727 -9.11593 -11.2349 -0.297117 -1.69582 -6.88856 -17.6286 -1.03493 28.2068 -0.0 -0.0 0.0 0.0 0.0 
772.768762844 679.613 -1169.28390913 -144.688730141 -58.7727210739 -145.054752482 4.18732 0.0823732 0.0572161 4.18732 0.0785655 0.0623418 4.1874 0.069194 0.0726032 4.18741 0.0797919 0.0607641 -0.0512055 -2.89366 -3.2146 -0.0238753 -2.52743 -3.76335 -0.0 0.0 -0.0 4.4406 12.1737 8.89163 -0.233008 -47.4944 53.196 1.58414 -38.1199 0.54735 -13.335 -0.655834 1.57 -1.39722 18.4538 -0.949442 -0.0 0.0 -0.0 9.13359 2.11218 -17.9395 19.5956 -66.7058 -33.1837 0.35376 9.93992 -0.0307632 85.1484 4.4443 8.87295 -2.46669 -24.7785 4.13479 0.0 0.0 0.0 8.72844 16.022 -2.43852 -14.9027 0.32152 2.25797 40.6815 11.9518 -4.95365 -16.8491 0.0 0.0 -0.0 0.0 -0.0 48.1605 17.9923 -8.41818 -0.280793 -0.0114604 -0.0415665 -24.359 -17.9041 -3.71235 23.7977 -0.0 -0.0 0.0 0.0 0.0 
773.194611761 679.613 -1174.25407869 -143.961919211 -59.3792143832 -144.207520755 4.18732 0.0823732 0.0572161 4.18732 0.0785655 0.0623418 4.1874 0.069194 0.0726032 4.18741 0.0797919 0.0607641 -0.0512055 -2.89366 -3.2146 -0.0238753 -2.52743 -3.76335 -0.0 0.0 -0.0 4.4406 12.1737 8.89163 -0.233008 -47.4944 53.196 1.58414 -38.1199 0.54735 -13.335 -0.655834 1.57 -1.39722 18.4538 -0.949442 -0.0 0.0 -0.0 9.13359 2.11218 -17.9395 19.5956 -66.7058 -33.1837 0.35376 9.93992 -0.0307632 85.1484 4.4443 8.87295 -2.46669 -24.7785 4.13479 0.0 0.0 0.0 8.72844 16.022 -2.43852 -14.9027 0.32152 2.25797 40.6815 11.9518 -4.95365 -16.8491 0.0 0.0 -0.0 0.0 -0.0 48.1605 17.9923 -8.41818 -0.280793 -0.0114604 -0.0415665 -24.359 -17.9041 -3.71235 23.7977 -0.0 -0.0 0.0 0.0 0.0 
